<svg xmlns="http://www.w3.org/2000/svg" viewBox="89.79 313.03 1003.34 209.96" width="1003" height="210" fill="none" role="img" aria-label="GEM Carbon Credit">
<path fill-rule="nonzero" fill="#2E6B34" fill-opacity="1" d="M 432.035156 338.320312 C 432.035156 338.320312 432.039062 335.140625 435.113281 335.140625 C 454.53125 335.136719 473.953125 335.171875 493.371094 335.09375 C 495.460938 335.085938 496.273438 335.75 496.792969 337.78125 C 502.386719 359.65625 508.097656 381.496094 513.746094 403.355469 C 515.617188 410.589844 520.054688 410.480469 521.40625 410.480469 C 524.703125 410.484375 527.542969 408.25 528.535156 404.453125 C 530.847656 395.625 541.992188 352.648438 545.847656 337.503906 C 546.289062 335.769531 547.007812 335.09375 548.875 335.101562 C 568.636719 335.164062 588.394531 335.167969 608.15625 335.097656 C 610.257812 335.089844 610.78125 335.78125 610.78125 337.789062 C 610.734375 388.613281 610.734375 439.4375 610.78125 490.261719 C 610.785156 492.3125 610.167969 492.953125 608.117188 492.941406 C 596.574219 492.859375 585.03125 492.902344 573.484375 492.902344 C 570.351562 492.902344 570.320312 492.875 570.316406 489.71875 C 570.304688 438.574219 570.261719 395.277344 570.320312 394.042969 C 570.605469 388.378906 566.6875 387.65625 562.601562 388.511719 C 560.582031 388.933594 559.824219 390.660156 559.359375 392.558594 C 556.542969 404.082031 553.675781 415.597656 550.839844 427.117188 C 547.40625 441.070312 543.941406 455.019531 540.59375 468.996094 C 540.089844 471.101562 539.199219 471.804688 537.007812 471.777344 C 526.621094 471.660156 516.230469 471.660156 505.84375 471.777344 C 503.570312 471.804688 502.683594 471.0625 502.148438 468.871094 C 495.941406 443.585938 489.632812 418.332031 483.351562 393.066406 C 482.511719 389.699219 481.28125 388.429688 478.695312 388.285156 C 474.128906 388.023438 472.476562 389.550781 472.472656 394.125 C 472.464844 425.472656 472.46875 456.824219 472.46875 488.171875 C 472.46875 488.78125 472.472656 489.394531 472.46875 490.003906 C 472.441406 492.78125 472.339844 492.898438 469.621094 492.898438 C 458.007812 492.90625 446.398438 492.90625 434.785156 492.898438 C 432.082031 492.898438 432.035156 490.179688 432.035156 490.179688 Z M 432.035156 338.320312 "/>
<path fill-rule="nonzero" fill="#2E6B34" fill-opacity="1" d="M 304.75 338.460938 C 304.75 338.460938 304.753906 335.140625 308.128906 335.140625 C 339.699219 335.140625 376.996094 335.140625 408.566406 335.140625 C 411.609375 335.140625 411.617188 335.148438 411.617188 338.179688 C 411.621094 346.726562 411.625 355.273438 411.617188 363.824219 C 411.617188 366.644531 411.5625 366.695312 408.792969 366.695312 C 390.191406 366.699219 365.859375 366.699219 347.257812 366.699219 C 344.425781 366.699219 344.417969 366.707031 344.417969 369.46875 C 344.414062 385.835938 344.417969 402.960938 344.417969 408.300781 C 344.417969 408.976562 345.203125 409.347656 345.726562 408.921875 C 349.640625 405.710938 361.546875 395.914062 370.601562 388.121094 C 372.910156 386.132812 374.222656 386.078125 376.5 388.03125 C 384.996094 395.320312 393.453125 402.660156 401.953125 409.945312 C 402.980469 410.824219 403.40625 411.8125 403.394531 413.125 C 403.359375 416.855469 403.402344 420.585938 403.378906 424.316406 C 403.363281 426.761719 403.1875 426.925781 400.652344 426.925781 C 382.933594 426.933594 365.214844 426.929688 347.496094 426.929688 C 344.421875 426.929688 344.417969 426.933594 344.417969 430.082031 C 344.417969 439.714844 344.460938 449.351562 344.378906 458.984375 C 344.363281 460.878906 344.976562 461.390625 346.828125 461.386719 C 365.972656 461.324219 389.699219 461.347656 408.84375 461.351562 C 411.78125 461.351562 411.789062 461.359375 411.789062 464.226562 C 411.792969 472.980469 411.742188 481.730469 411.828125 490.480469 C 411.84375 492.367188 411.203125 492.933594 409.367188 492.929688 C 376.847656 492.890625 339.746094 492.882812 307.226562 492.945312 C 304.964844 492.949219 304.722656 491.914062 304.726562 490.085938 C 304.761719 464.710938 304.75 338.460938 304.75 338.460938 "/>
<path fill-rule="nonzero" fill="#2E6B34" fill-opacity="1" d="M 275.597656 390.4375 C 262.941406 390.394531 250.304688 390.394531 237.648438 390.4375 C 236.03125 390.4375 235.332031 389.605469 234.636719 388.347656 C 210.074219 343.972656 148.367188 363.3125 149.140625 415.03125 C 149.796875 458.832031 189.914062 463.140625 198.238281 463.140625 L 232.382812 463.140625 C 232.960938 463.140625 233.382812 463.679688 233.25 464.238281 L 226.496094 492.285156 C 226.429688 492.574219 226.21875 492.8125 225.9375 492.914062 C 219.617188 495.230469 212.933594 496.792969 205.90625 497.605469 C 147.457031 504.363281 114.496094 465.03125 108.40625 429.171875 C 99.792969 378.472656 131.027344 340.457031 172.453125 331.425781 C 210.960938 323.027344 261.070312 337.105469 277.148438 388.257812 C 277.644531 389.832031 277.285156 390.4375 275.597656 390.4375 "/>
<path fill-rule="nonzero" fill="#2E6B34" fill-opacity="1" d="M 239.566406 457.257812 L 203.28125 457.257812 C 202.332031 457.257812 201.644531 456.351562 201.902344 455.433594 L 209.882812 427.160156 C 210.058594 426.542969 210.621094 426.113281 211.261719 426.113281 L 275.894531 426.113281 C 276.847656 426.113281 277.535156 427.03125 277.273438 427.949219 L 267.648438 461.308594 C 267.386719 462.226562 268.074219 463.140625 269.027344 463.140625 L 293.191406 463.140625 C 294.179688 463.140625 294.605469 464.398438 293.820312 465 L 229.769531 512.402344 C 229 512.992188 227.917969 512.296875 228.132812 511.351562 L 240.578125 458.523438 C 240.722656 457.875 240.230469 457.257812 239.566406 457.257812 "/>
<path fill-rule="nonzero" fill="#1E293B" fill-opacity="1" d="M 772.195312 429.917969 C 777.808594 434.308594 781.519531 440.277344 783.328125 447.828125 L 769 447.828125 C 767.515625 444.148438 765.207031 441.246094 762.078125 439.113281 C 758.945312 436.984375 755.1875 435.921875 750.800781 435.921875 C 747.183594 435.921875 743.925781 436.824219 741.019531 438.628906 C 738.117188 440.4375 735.855469 443.019531 734.246094 446.375 C 732.632812 449.730469 731.824219 453.667969 731.824219 458.183594 C 731.824219 462.640625 732.632812 466.542969 734.246094 469.898438 C 735.855469 473.257812 738.117188 475.839844 741.019531 477.644531 C 743.925781 479.453125 747.183594 480.355469 750.800781 480.355469 C 755.1875 480.355469 758.945312 479.292969 762.078125 477.160156 C 765.207031 475.03125 767.515625 472.125 769 468.445312 L 783.328125 468.445312 C 781.519531 476 777.808594 481.96875 772.195312 486.355469 C 766.578125 490.746094 759.511719 492.941406 750.992188 492.941406 C 744.472656 492.941406 738.714844 491.472656 733.714844 488.535156 C 728.710938 485.601562 724.839844 481.484375 722.09375 476.191406 C 719.351562 470.902344 717.980469 464.898438 717.980469 458.183594 C 717.980469 451.410156 719.351562 445.375 722.09375 440.082031 C 724.839844 434.789062 728.695312 430.675781 733.664062 427.738281 C 738.632812 424.800781 744.410156 423.335938 750.992188 423.335938 C 759.511719 423.335938 766.578125 425.53125 772.195312 429.917969 "/>
<path fill-rule="nonzero" fill="#1E293B" fill-opacity="1" d="M 807.238281 456.347656 L 818.46875 456.347656 C 826.277344 456.347656 830.183594 452.894531 830.183594 445.988281 C 830.183594 442.695312 829.230469 440.132812 827.328125 438.292969 C 825.421875 436.453125 822.46875 435.53125 818.46875 435.53125 L 807.238281 435.53125 Z M 829.214844 492.359375 L 813.242188 465.738281 L 807.238281 465.738281 L 807.238281 492.359375 L 793.589844 492.359375 L 793.589844 424.011719 L 819.628906 424.011719 C 827.570312 424.011719 833.621094 425.949219 837.78125 429.820312 C 841.945312 433.691406 844.027344 438.792969 844.027344 445.117188 C 844.027344 450.28125 842.589844 454.605469 839.71875 458.089844 C 836.847656 461.574219 832.699219 463.898438 827.277344 465.058594 L 844.316406 492.359375 Z M 829.214844 492.359375 "/>
<path fill-rule="nonzero" fill="#1E293B" fill-opacity="1" d="M 866.875 434.855469 L 866.875 452.570312 L 891.078125 452.570312 L 891.078125 463.027344 L 866.875 463.027344 L 866.875 481.417969 L 893.980469 481.417969 L 893.980469 492.359375 L 853.222656 492.359375 L 853.222656 424.011719 L 893.980469 424.011719 L 893.980469 434.855469 Z M 866.875 434.855469 "/>
<path fill-rule="nonzero" fill="#1E293B" fill-opacity="1" d="M 944.273438 474.351562 C 948.304688 470.480469 950.324219 465.058594 950.324219 458.089844 C 950.324219 451.054688 948.304688 445.601562 944.273438 441.726562 C 940.238281 437.855469 934.542969 435.917969 927.1875 435.917969 L 917.699219 435.917969 L 917.699219 480.160156 L 927.1875 480.160156 C 934.542969 480.160156 940.238281 478.226562 944.273438 474.351562 M 959.910156 476 C 957.066406 481.164062 952.953125 485.179688 947.566406 488.050781 C 942.175781 490.925781 935.769531 492.359375 928.347656 492.359375 L 904.046875 492.359375 L 904.046875 424.011719 L 928.347656 424.011719 C 935.769531 424.011719 942.175781 425.417969 947.566406 428.222656 C 952.953125 431.03125 957.066406 435 959.910156 440.132812 C 962.746094 445.261719 964.167969 451.25 964.167969 458.089844 C 964.167969 464.867188 962.746094 470.835938 959.910156 476 "/>
<path fill-rule="nonzero" fill="#1E293B" fill-opacity="1" d="M 988.078125 492.359375 L 974.425781 492.359375 L 974.425781 424.011719 L 988.078125 424.011719 Z M 988.078125 492.359375 "/>
<path fill-rule="nonzero" fill="#1E293B" fill-opacity="1" d="M 1046.9375 424.011719 L 1046.9375 434.855469 L 1028.058594 434.855469 L 1028.058594 492.359375 L 1014.410156 492.359375 L 1014.410156 434.855469 L 995.628906 434.855469 L 995.628906 424.011719 Z M 1046.9375 424.011719 "/>
<path fill-rule="nonzero" fill="#1E293B" fill-opacity="1" d="M 736 340.808594 C 741.617188 345.199219 745.328125 351.167969 747.132812 358.71875 L 732.808594 358.71875 C 731.320312 355.039062 729.015625 352.136719 725.882812 350.003906 C 722.753906 347.875 718.996094 346.8125 714.605469 346.8125 C 710.992188 346.8125 707.734375 347.714844 704.828125 349.519531 C 701.921875 351.328125 699.664062 353.910156 698.050781 357.265625 C 696.4375 360.621094 695.632812 364.558594 695.632812 369.074219 C 695.632812 373.53125 696.4375 377.4375 698.050781 380.789062 C 699.664062 384.148438 701.921875 386.730469 704.828125 388.535156 C 707.734375 390.34375 710.992188 391.246094 714.605469 391.246094 C 718.996094 391.246094 722.753906 390.183594 725.882812 388.050781 C 729.015625 385.921875 731.320312 383.015625 732.808594 379.339844 L 747.132812 379.339844 C 745.328125 386.890625 741.617188 392.859375 736 397.25 C 730.386719 401.636719 723.320312 403.832031 714.800781 403.832031 C 708.28125 403.832031 702.519531 402.363281 697.519531 399.425781 C 692.515625 396.492188 688.644531 392.375 685.902344 387.082031 C 683.15625 381.792969 681.789062 375.789062 681.789062 369.074219 C 681.789062 362.300781 683.15625 356.265625 685.902344 350.972656 C 688.644531 345.683594 692.5 341.566406 697.472656 338.628906 C 702.441406 335.695312 708.214844 334.226562 714.800781 334.226562 C 723.320312 334.226562 730.386719 336.421875 736 340.808594 "/>
<path fill-rule="nonzero" fill="#1E293B" fill-opacity="1" d="M 795.34375 379.144531 L 785.277344 350.296875 L 775.207031 379.144531 Z M 799.023438 389.503906 L 771.625 389.503906 L 766.785156 403.25 L 752.359375 403.25 L 777.53125 335.675781 L 793.117188 335.675781 L 818.191406 403.25 L 803.765625 403.25 Z M 799.023438 389.503906 "/>
<path fill-rule="nonzero" fill="#1E293B" fill-opacity="1" d="M 839.199219 367.238281 L 850.429688 367.238281 C 858.238281 367.238281 862.144531 363.785156 862.144531 356.878906 C 862.144531 353.585938 861.191406 351.023438 859.285156 349.183594 C 857.382812 347.34375 854.429688 346.421875 850.429688 346.421875 L 839.199219 346.421875 Z M 861.175781 403.25 L 845.203125 376.628906 L 839.199219 376.628906 L 839.199219 403.25 L 825.546875 403.25 L 825.546875 334.902344 L 851.589844 334.902344 C 859.527344 334.902344 865.578125 336.839844 869.742188 340.710938 C 873.90625 344.582031 875.988281 349.683594 875.988281 356.007812 C 875.988281 361.171875 874.550781 365.496094 871.679688 368.980469 C 868.808594 372.464844 864.660156 374.789062 859.238281 375.949219 L 876.277344 403.25 Z M 861.175781 403.25 "/>
<path fill-rule="nonzero" fill="#1E293B" fill-opacity="1" d="M 920.132812 389.746094 C 922.070312 388.164062 923.035156 385.859375 923.035156 382.824219 C 923.035156 379.792969 922.050781 377.449219 920.085938 375.804688 C 918.113281 374.160156 915.324219 373.335938 911.710938 373.335938 L 898.832031 373.335938 L 898.832031 392.117188 L 911.804688 392.117188 C 915.421875 392.117188 918.195312 391.328125 920.132812 389.746094 M 898.832031 363.558594 L 911.128906 363.558594 C 914.550781 363.558594 917.144531 362.800781 918.921875 361.28125 C 920.695312 359.769531 921.582031 357.589844 921.582031 354.75 C 921.582031 351.910156 920.710938 349.714844 918.96875 348.164062 C 917.226562 346.617188 914.550781 345.84375 910.933594 345.84375 L 898.832031 345.84375 Z M 933.25 373.871094 C 935.734375 376.933594 936.976562 380.535156 936.976562 384.664062 C 936.976562 390.40625 935.054688 394.941406 931.214844 398.265625 C 927.375 401.589844 921.808594 403.25 914.515625 403.25 L 885.183594 403.25 L 885.183594 334.902344 L 913.9375 334.902344 C 920.839844 334.902344 926.148438 336.417969 929.863281 339.453125 C 933.574219 342.488281 935.425781 346.746094 935.425781 352.230469 C 935.425781 356.492188 934.316406 359.976562 932.089844 362.6875 C 929.863281 365.398438 926.941406 367.171875 923.328125 368.011719 C 927.457031 368.851562 930.765625 370.804688 933.25 373.871094 "/>
<path fill-rule="nonzero" fill="#1E293B" fill-opacity="1" d="M 1083.132812 403.25 L 1069.480469 403.25 L 1038.890625 356.78125 L 1038.890625 403.25 L 1025.238281 403.25 L 1025.238281 334.902344 L 1038.890625 334.902344 L 1069.480469 381.757812 L 1069.480469 334.902344 L 1083.132812 334.902344 Z M 1083.132812 403.25 "/>
<path fill-rule="nonzero" fill="#1E293B" fill-opacity="1" d="M 946.050781 390.132812 L 981.039062 410.328125 L 1016.03125 390.132812 L 1016.03125 358.472656 L 1004.441406 365.246094 L 1004.441406 383.441406 L 1004.167969 383.601562 L 981.039062 396.949219 L 957.640625 383.441406 L 957.640625 365.246094 L 946.050781 358.472656 Z M 946.050781 390.132812 "/>
<path fill-rule="nonzero" fill="#1E293B" fill-opacity="1" d="M 981.039062 342.914062 L 1002.605469 355.359375 L 1014.121094 348.628906 L 981.039062 329.53125 L 947.960938 348.628906 L 959.476562 355.359375 Z M 981.039062 342.914062 "/>
<path fill-rule="nonzero" fill="#1E293B" fill-opacity="1" d="M 969.59375 376.535156 L 981.039062 383.140625 L 992.476562 376.535156 L 992.476562 363.324219 L 981.039062 356.71875 L 969.59375 363.324219 Z M 969.59375 376.535156 "/>
</svg>
